<svg viewBox="0 0 300 300" xmlns="http://www.w3.org/2000/svg"><!-- Gift Box Body --> <rect x="60" y="120" width="180" height="140" rx="8" fill="#ff4757" /> <!-- Gift Box Lid --> <rect x="50" y="100" width="200" height="30" rx="6" fill="#ff6b81" /> <!-- Vertical Ribbon --> <rect x="135" y="80" width="30" height="180" fill="#ffffff" /> <!-- Horizontal Ribbon --> <rect x="50" y="115" width="200" height="30" fill="#ffffff" /> <!-- Bow Left Loop --> <ellipse cx="115" cy="85" rx="35" ry="25" fill="#ffffff" /> <!-- Bow Right Loop --> <ellipse cx="185" cy="85" rx="35" ry="25" fill="#ffffff" /> <!-- Bow Center Knot --> <circle cx="150" cy="85" r="18" fill="#ffffff" /> <!-- Bow Ribbon Tails --> <path d="M 135 103 L 120 130 L 130 135 L 145 108 Z" fill="#ffffff" opacity="0.9" /> <path d="M 165 103 L 180 130 L 170 135 L 155 108 Z" fill="#ffffff" opacity="0.9" /> <!-- Subtle Shadows for Depth --> <rect x="60" y="120" width="90" height="140" rx="8" fill="#000000" opacity="0.03" /> <ellipse cx="115" cy="85" rx="35" ry="25" fill="#000000" opacity="0.02" /> <!-- Bow Highlight --> <ellipse cx="140" cy="78" rx="12" ry="8" fill="#ffffff" opacity="0.6" /> <ellipse cx="170" cy="78" rx="12" ry="8" fill="#ffffff" opacity="0.6" />
    </svg>
